<svg xmlns="http://www.w3.org/2000/svg" xmlns:xlink="http://www.w3.org/1999/xlink" viewBox="64.29 101.15 545.51 123.31"><path d="M 272.500,114.400 C 268.500,118.400 269.254,119.591 264.500,122.400" stroke-width="5.292" stroke="rgb(255, 255, 255)" fill="none" stroke-linecap="round"/><path d="M 264.500,122.400 C 258.254,126.091 257.368,124.590 250.500,127.400" stroke-width="4.535" stroke="rgb(255, 255, 255)" fill="none" stroke-linecap="round"/><path d="M 250.500,127.400 C 246.368,129.090 246.557,129.527 242.500,131.400" stroke-width="3.844" stroke="rgb(255, 255, 255)" fill="none" stroke-linecap="round"/><path d="M 242.500,131.400 C 240.057,132.527 239.943,132.273 237.500,133.400" stroke-width="4.134" stroke="rgb(255, 255, 255)" fill="none" stroke-linecap="round"/><path d="M 237.500,133.400 C 233.443,135.273 233.557,135.527 229.500,137.400" stroke-width="3.810" stroke="rgb(255, 255, 255)" fill="none" stroke-linecap="round"/><path d="M 229.500,137.400 C 227.057,138.527 226.901,138.200 224.500,139.400" stroke-width="4.122" stroke="rgb(255, 255, 255)" fill="none" stroke-linecap="round"/><path d="M 224.500,139.400 C 221.901,140.700 222.065,141.019 219.500,142.400" stroke-width="4.122" stroke="rgb(255, 255, 255)" fill="none" stroke-linecap="round"/><path d="M 219.500,142.400 C 215.565,144.519 215.557,144.527 211.500,146.400" stroke-width="3.748" stroke="rgb(255, 255, 255)" fill="none" stroke-linecap="round"/><path d="M 211.500,146.400 C 209.057,147.527 208.901,147.200 206.500,148.400" stroke-width="4.137" stroke="rgb(255, 255, 255)" fill="none" stroke-linecap="round"/><path d="M 206.500,148.400 C 203.901,149.700 204.065,150.019 201.500,151.400" stroke-width="4.127" stroke="rgb(255, 255, 255)" fill="none" stroke-linecap="round"/><path d="M 201.500,151.400 C 197.565,153.519 197.500,153.400 193.500,155.400" stroke-width="3.808" stroke="rgb(255, 255, 255)" fill="none" stroke-linecap="round"/><path d="M 193.500,155.400 C 190.500,156.900 190.500,156.900 187.500,158.400" stroke-width="3.963" stroke="rgb(255, 255, 255)" fill="none" stroke-linecap="round"/><path d="M 187.500,158.400 C 184.500,159.900 184.459,159.822 181.500,161.400" stroke-width="3.963" stroke="rgb(255, 255, 255)" fill="none" stroke-linecap="round"/><path d="M 181.500,161.400 C 176.959,163.822 177.146,164.232 172.500,166.400" stroke-width="3.630" stroke="rgb(255, 255, 255)" fill="none" stroke-linecap="round"/><path d="M 172.500,166.400 C 169.646,167.732 169.357,167.081 166.500,168.400" stroke-width="3.946" stroke="rgb(255, 255, 255)" fill="none" stroke-linecap="round"/><path d="M 166.500,168.400 C 162.857,170.081 163.097,170.601 159.500,172.400" stroke-width="3.854" stroke="rgb(255, 255, 255)" fill="none" stroke-linecap="round"/><path d="M 159.500,172.400 C 157.097,173.601 156.903,173.199 154.500,174.400" stroke-width="4.095" stroke="rgb(255, 255, 255)" fill="none" stroke-linecap="round"/><path d="M 154.500,174.400 C 150.903,176.199 151.097,176.601 147.500,178.400" stroke-width="3.895" stroke="rgb(255, 255, 255)" fill="none" stroke-linecap="round"/><path d="M 147.500,178.400 C 145.097,179.601 144.833,179.104 142.500,180.400" stroke-width="4.109" stroke="rgb(255, 255, 255)" fill="none" stroke-linecap="round"/><path d="M 142.500,180.400 C 140.333,181.604 140.715,182.292 138.500,183.400" stroke-width="4.231" stroke="rgb(255, 255, 255)" fill="none" stroke-linecap="round"/><path d="M 138.500,183.400 C 134.715,185.292 134.487,184.867 130.500,186.400" stroke-width="3.878" stroke="rgb(255, 255, 255)" fill="none" stroke-linecap="round"/><path d="M 130.500,186.400 C 127.987,187.367 128.000,187.400 125.500,188.400" stroke-width="4.145" stroke="rgb(255, 255, 255)" fill="none" stroke-linecap="round"/><path d="M 125.500,188.400 C 123.000,189.400 122.949,189.287 120.500,190.400" stroke-width="4.189" stroke="rgb(255, 255, 255)" fill="none" stroke-linecap="round"/><path d="M 120.500,190.400 C 117.449,191.787 117.459,191.822 114.500,193.400" stroke-width="4.125" stroke="rgb(255, 255, 255)" fill="none" stroke-linecap="round"/><path d="M 114.500,193.400 C 109.959,195.822 110.098,196.101 105.500,198.400" stroke-width="4.237" stroke="rgb(255, 255, 255)" fill="none" stroke-linecap="round"/><path d="M 105.500,198.400 C 102.098,200.101 102.015,199.936 98.500,201.400" stroke-width="4.465" stroke="rgb(255, 255, 255)" fill="none" stroke-linecap="round"/><path d="M 98.500,201.400 C 96.015,202.436 95.949,202.287 93.500,203.400" stroke-width="4.328" stroke="rgb(255, 255, 255)" fill="none" stroke-linecap="round"/><path d="M 93.500,203.400 C 90.449,204.787 90.544,204.995 87.500,206.400" stroke-width="4.565" stroke="rgb(255, 255, 255)" fill="none" stroke-linecap="round"/><path d="M 87.500,206.400 C 84.044,207.995 83.820,207.589 80.500,209.400" stroke-width="4.586" stroke="rgb(255, 255, 255)" fill="none" stroke-linecap="round"/><path d="M 80.500,209.400 C 78.320,210.589 75.502,212.828 76.500,212.400" stroke-width="4.791" stroke="rgb(255, 255, 255)" fill="none" stroke-linecap="round"/><path d="M 173.500,164.400 C 178.500,163.900 178.492,163.734 183.500,163.400" stroke-width="5.427" stroke="rgb(255, 255, 255)" fill="none" stroke-linecap="round"/><path d="M 183.500,163.400 C 185.992,163.234 186.019,163.626 188.500,163.400" stroke-width="4.887" stroke="rgb(255, 255, 255)" fill="none" stroke-linecap="round"/><path d="M 188.500,163.400 C 191.519,163.126 191.508,162.944 194.500,162.400" stroke-width="4.289" stroke="rgb(255, 255, 255)" fill="none" stroke-linecap="round"/><path d="M 194.500,162.400 C 197.008,161.944 196.994,161.870 199.500,161.400" stroke-width="4.355" stroke="rgb(255, 255, 255)" fill="none" stroke-linecap="round"/><path d="M 199.500,161.400 C 204.994,160.370 205.000,160.400 210.500,159.400" stroke-width="4.510" stroke="rgb(255, 255, 255)" fill="none" stroke-linecap="round"/><path d="M 210.500,159.400 C 216.000,158.400 215.980,158.272 221.500,157.400" stroke-width="3.666" stroke="rgb(255, 255, 255)" fill="none" stroke-linecap="round"/><path d="M 221.500,157.400 C 225.480,156.772 225.518,157.013 229.500,156.400" stroke-width="3.769" stroke="rgb(255, 255, 255)" fill="none" stroke-linecap="round"/><path d="M 229.500,156.400 C 232.018,156.013 232.029,156.018 234.500,155.400" stroke-width="4.143" stroke="rgb(255, 255, 255)" fill="none" stroke-linecap="round"/><path d="M 234.500,155.400 C 238.029,154.518 237.971,154.282 241.500,153.400" stroke-width="3.945" stroke="rgb(255, 255, 255)" fill="none" stroke-linecap="round"/><path d="M 241.500,153.400 C 243.971,152.782 244.000,152.900 246.500,152.400" stroke-width="4.205" stroke="rgb(255, 255, 255)" fill="none" stroke-linecap="round"/><path d="M 246.500,152.400 C 249.000,151.900 249.045,152.070 251.500,151.400" stroke-width="4.290" stroke="rgb(255, 255, 255)" fill="none" stroke-linecap="round"/><path d="M 251.500,151.400 C 254.545,150.570 254.455,150.230 257.500,149.400" stroke-width="4.106" stroke="rgb(255, 255, 255)" fill="none" stroke-linecap="round"/><path d="M 257.500,149.400 C 259.955,148.730 259.994,148.870 262.500,148.400" stroke-width="4.216" stroke="rgb(255, 255, 255)" fill="none" stroke-linecap="round"/><path d="M 262.500,148.400 C 267.994,147.370 268.101,147.750 273.500,146.400" stroke-width="4.228" stroke="rgb(255, 255, 255)" fill="none" stroke-linecap="round"/><path d="M 273.500,146.400 C 276.101,145.750 275.899,145.050 278.500,144.400" stroke-width="4.259" stroke="rgb(255, 255, 255)" fill="none" stroke-linecap="round"/><path d="M 278.500,144.400 C 283.899,143.050 284.019,143.496 289.500,142.400" stroke-width="4.218" stroke="rgb(255, 255, 255)" fill="none" stroke-linecap="round"/><path d="M 289.500,142.400 C 294.019,141.496 293.993,141.366 298.500,140.400" stroke-width="4.342" stroke="rgb(255, 255, 255)" fill="none" stroke-linecap="round"/><path d="M 298.500,140.400 C 300.993,139.866 301.000,139.900 303.500,139.400" stroke-width="4.331" stroke="rgb(255, 255, 255)" fill="none" stroke-linecap="round"/><path d="M 303.500,139.400 C 308.500,138.400 308.559,138.635 313.500,137.400" stroke-width="4.307" stroke="rgb(255, 255, 255)" fill="none" stroke-linecap="round"/><path d="M 313.500,137.400 C 318.559,136.135 318.492,135.873 323.500,134.400" stroke-width="4.283" stroke="rgb(255, 255, 255)" fill="none" stroke-linecap="round"/><path d="M 323.500,134.400 C 326.992,133.373 326.960,133.233 330.500,132.400" stroke-width="4.522" stroke="rgb(255, 255, 255)" fill="none" stroke-linecap="round"/><path d="M 330.500,132.400 C 335.460,131.233 335.562,131.634 340.500,130.400" stroke-width="4.384" stroke="rgb(255, 255, 255)" fill="none" stroke-linecap="round"/><path d="M 340.500,130.400 C 343.562,129.634 346.230,128.400 346.500,128.400" stroke-width="4.614" stroke="rgb(255, 255, 255)" fill="none" stroke-linecap="round"/><path d="M 346.500,128.400 C 346.730,128.400 344.109,129.965 341.500,130.400" stroke-width="5.013" stroke="rgb(255, 255, 255)" fill="none" stroke-linecap="round"/><path d="M 229.500,156.400 C 225.000,158.900 225.096,159.102 220.500,161.400" stroke-width="5.457" stroke="rgb(255, 255, 255)" fill="none" stroke-linecap="round"/><path d="M 220.500,161.400 C 218.096,162.602 217.985,162.364 215.500,163.400" stroke-width="5.050" stroke="rgb(255, 255, 255)" fill="none" stroke-linecap="round"/><path d="M 215.500,163.400 C 211.985,164.864 212.000,164.900 208.500,166.400" stroke-width="4.723" stroke="rgb(255, 255, 255)" fill="none" stroke-linecap="round"/><path d="M 208.500,166.400 C 205.000,167.900 204.900,167.700 201.500,169.400" stroke-width="4.615" stroke="rgb(255, 255, 255)" fill="none" stroke-linecap="round"/><path d="M 201.500,169.400 C 197.900,171.200 198.000,171.400 194.500,173.400" stroke-width="4.567" stroke="rgb(255, 255, 255)" fill="none" stroke-linecap="round"/><path d="M 194.500,173.400 C 191.000,175.400 190.895,175.240 187.500,177.400" stroke-width="4.534" stroke="rgb(255, 255, 255)" fill="none" stroke-linecap="round"/><path d="M 187.500,177.400 C 185.395,178.740 185.577,179.015 183.500,180.400" stroke-width="4.774" stroke="rgb(255, 255, 255)" fill="none" stroke-linecap="round"/><path d="M 183.500,180.400 C 181.077,182.015 181.000,181.900 178.500,183.400" stroke-width="4.348" stroke="rgb(255, 255, 255)" fill="none" stroke-linecap="round"/><path d="M 178.500,183.400 C 176.000,184.900 176.000,184.900 173.500,186.400" stroke-width="4.642" stroke="rgb(255, 255, 255)" fill="none" stroke-linecap="round"/><path d="M 173.500,186.400 C 171.000,187.900 170.653,187.516 168.500,189.400" stroke-width="4.753" stroke="rgb(255, 255, 255)" fill="none" stroke-linecap="round"/><path d="M 168.500,189.400 C 166.653,191.016 165.741,191.233 165.500,193.400" stroke-width="4.844" stroke="rgb(255, 255, 255)" fill="none" stroke-linecap="round"/><path d="M 165.500,193.400 C 165.241,195.733 165.750,196.650 167.500,198.400" stroke-width="5.143" stroke="rgb(255, 255, 255)" fill="none" stroke-linecap="round"/><path d="M 167.500,198.400 C 169.250,200.150 169.891,199.965 172.500,200.400" stroke-width="4.939" stroke="rgb(255, 255, 255)" fill="none" stroke-linecap="round"/><path d="M 172.500,200.400 C 175.891,200.965 176.000,200.400 179.500,200.400" stroke-width="4.173" stroke="rgb(255, 255, 255)" fill="none" stroke-linecap="round"/><path d="M 179.500,200.400 C 182.500,200.400 182.500,200.400 185.500,200.400" stroke-width="4.162" stroke="rgb(255, 255, 255)" fill="none" stroke-linecap="round"/><path d="M 185.500,200.400 C 188.500,200.400 188.516,200.630 191.500,200.400" stroke-width="4.159" stroke="rgb(255, 255, 255)" fill="none" stroke-linecap="round"/><path d="M 191.500,200.400 C 195.016,200.130 194.989,199.813 198.500,199.400" stroke-width="3.975" stroke="rgb(255, 255, 255)" fill="none" stroke-linecap="round"/><path d="M 198.500,199.400 C 203.489,198.813 203.590,199.321 208.500,198.400" stroke-width="3.657" stroke="rgb(255, 255, 255)" fill="none" stroke-linecap="round"/><path d="M 208.500,198.400 C 211.590,197.821 211.478,197.330 214.500,196.400" stroke-width="3.911" stroke="rgb(255, 255, 255)" fill="none" stroke-linecap="round"/><path d="M 214.500,196.400 C 217.978,195.330 217.970,195.282 221.500,194.400" stroke-width="3.930" stroke="rgb(255, 255, 255)" fill="none" stroke-linecap="round"/><path d="M 221.500,194.400 C 225.970,193.282 226.081,193.663 230.500,192.400" stroke-width="3.670" stroke="rgb(255, 255, 255)" fill="none" stroke-linecap="round"/><path d="M 230.500,192.400 C 233.081,191.663 232.932,191.170 235.500,190.400" stroke-width="4.108" stroke="rgb(255, 255, 255)" fill="none" stroke-linecap="round"/><path d="M 235.500,190.400 C 237.932,189.670 238.029,190.018 240.500,189.400" stroke-width="4.217" stroke="rgb(255, 255, 255)" fill="none" stroke-linecap="round"/><path d="M 240.500,189.400 C 244.029,188.518 244.050,188.550 247.500,187.400" stroke-width="4.018" stroke="rgb(255, 255, 255)" fill="none" stroke-linecap="round"/><path d="M 247.500,187.400 C 251.550,186.050 251.704,186.298 255.500,184.400" stroke-width="4.323" stroke="rgb(255, 255, 255)" fill="none" stroke-linecap="round"/><path d="M 255.500,184.400 C 258.704,182.798 261.500,181.492 261.500,180.400" stroke-width="4.722" stroke="rgb(255, 255, 255)" fill="none" stroke-linecap="round"/><path d="M 261.500,180.400 C 261.500,179.492 258.479,180.152 255.500,180.400" stroke-width="5.022" stroke="rgb(255, 255, 255)" fill="none" stroke-linecap="round"/><path d="M 255.500,180.400 C 252.479,180.652 252.481,180.804 249.500,181.400" stroke-width="4.320" stroke="rgb(255, 255, 255)" fill="none" stroke-linecap="round"/><path d="M 249.500,181.400 C 244.981,182.304 245.035,182.600 240.500,183.400" stroke-width="4.393" stroke="rgb(255, 255, 255)" fill="none" stroke-linecap="round"/><path d="M 240.500,183.400 C 236.535,184.100 236.397,183.501 232.500,184.400" stroke-width="3.915" stroke="rgb(255, 255, 255)" fill="none" stroke-linecap="round"/><path d="M 232.500,184.400 C 229.897,185.001 230.068,185.630 227.500,186.400" stroke-width="4.158" stroke="rgb(255, 255, 255)" fill="none" stroke-linecap="round"/><path d="M 227.500,186.400 C 225.068,187.130 224.955,186.730 222.500,187.400" stroke-width="4.275" stroke="rgb(255, 255, 255)" fill="none" stroke-linecap="round"/><path d="M 222.500,187.400 C 219.455,188.230 219.412,188.187 216.500,189.400" stroke-width="4.102" stroke="rgb(255, 255, 255)" fill="none" stroke-linecap="round"/><path d="M 216.500,189.400 C 213.412,190.687 213.365,190.681 210.500,192.400" stroke-width="4.502" stroke="rgb(255, 255, 255)" fill="none" stroke-linecap="round"/><path d="M 210.500,192.400 C 208.365,193.681 207.500,193.400 206.500,195.400" stroke-width="4.763" stroke="rgb(255, 255, 255)" fill="none" stroke-linecap="round"/><path d="M 206.500,195.400 C 205.500,197.400 205.075,198.975 206.500,200.400" stroke-width="5.003" stroke="rgb(255, 255, 255)" fill="none" stroke-linecap="round"/><path d="M 206.500,200.400 C 208.575,202.475 209.941,202.163 213.500,202.400" stroke-width="4.938" stroke="rgb(255, 255, 255)" fill="none" stroke-linecap="round"/><path d="M 213.500,202.400 C 217.441,202.663 217.500,201.900 221.500,201.400" stroke-width="4.638" stroke="rgb(255, 255, 255)" fill="none" stroke-linecap="round"/><path d="M 221.500,201.400 C 225.500,200.900 225.500,200.900 229.500,200.400" stroke-width="4.030" stroke="rgb(255, 255, 255)" fill="none" stroke-linecap="round"/><path d="M 229.500,200.400 C 233.500,199.900 233.510,199.970 237.500,199.400" stroke-width="4.378" stroke="rgb(255, 255, 255)" fill="none" stroke-linecap="round"/><path d="M 237.500,199.400 C 240.510,198.970 240.528,199.037 243.500,198.400" stroke-width="4.162" stroke="rgb(255, 255, 255)" fill="none" stroke-linecap="round"/><path d="M 243.500,198.400 C 247.528,197.537 247.528,197.503 251.500,196.400" stroke-width="4.393" stroke="rgb(255, 255, 255)" fill="none" stroke-linecap="round"/><path d="M 251.500,196.400 C 256.528,195.003 256.481,194.834 261.500,193.400" stroke-width="4.330" stroke="rgb(255, 255, 255)" fill="none" stroke-linecap="round"/><path d="M 261.500,193.400 C 266.981,191.834 267.066,192.098 272.500,190.400" stroke-width="4.224" stroke="rgb(255, 255, 255)" fill="none" stroke-linecap="round"/><path d="M 272.500,190.400 C 275.066,189.598 274.932,189.170 277.500,188.400" stroke-width="4.213" stroke="rgb(255, 255, 255)" fill="none" stroke-linecap="round"/><path d="M 277.500,188.400 C 279.932,187.670 280.094,188.202 282.500,187.400" stroke-width="4.331" stroke="rgb(255, 255, 255)" fill="none" stroke-linecap="round"/><path d="M 282.500,187.400 C 286.094,186.202 285.965,185.814 289.500,184.400" stroke-width="4.223" stroke="rgb(255, 255, 255)" fill="none" stroke-linecap="round"/><path d="M 289.500,184.400 C 293.465,182.814 293.637,183.183 297.500,181.400" stroke-width="4.283" stroke="rgb(255, 255, 255)" fill="none" stroke-linecap="round"/><path d="M 297.500,181.400 C 300.137,180.183 303.286,178.990 302.500,178.400" stroke-width="4.620" stroke="rgb(255, 255, 255)" fill="none" stroke-linecap="round"/><path d="M 302.500,178.400 C 301.286,177.490 297.825,177.490 293.500,178.400" stroke-width="4.929" stroke="rgb(255, 255, 255)" fill="none" stroke-linecap="round"/><path d="M 293.500,178.400 C 288.325,179.490 288.292,180.004 283.500,182.400" stroke-width="4.450" stroke="rgb(255, 255, 255)" fill="none" stroke-linecap="round"/><path d="M 283.500,182.400 C 280.292,184.004 280.148,184.016 277.500,186.400" stroke-width="4.565" stroke="rgb(255, 255, 255)" fill="none" stroke-linecap="round"/><path d="M 277.500,186.400 C 275.148,188.516 273.762,188.783 273.500,191.400" stroke-width="4.666" stroke="rgb(255, 255, 255)" fill="none" stroke-linecap="round"/><path d="M 273.500,191.400 C 273.262,193.783 274.043,195.939 276.500,196.400" stroke-width="4.934" stroke="rgb(255, 255, 255)" fill="none" stroke-linecap="round"/><path d="M 276.500,196.400 C 282.043,197.439 283.004,195.426 289.500,194.400" stroke-width="4.559" stroke="rgb(255, 255, 255)" fill="none" stroke-linecap="round"/><path d="M 289.500,194.400 C 292.504,193.926 292.505,193.929 295.500,193.400" stroke-width="4.209" stroke="rgb(255, 255, 255)" fill="none" stroke-linecap="round"/><path d="M 295.500,193.400 C 301.005,192.429 300.987,192.319 306.500,191.400" stroke-width="3.663" stroke="rgb(255, 255, 255)" fill="none" stroke-linecap="round"/><path d="M 306.500,191.400 C 309.987,190.819 310.038,191.092 313.500,190.400" stroke-width="3.826" stroke="rgb(255, 255, 255)" fill="none" stroke-linecap="round"/><path d="M 313.500,190.400 C 317.538,189.592 317.513,189.449 321.500,188.400" stroke-width="3.799" stroke="rgb(255, 255, 255)" fill="none" stroke-linecap="round"/><path d="M 321.500,188.400 C 327.013,186.949 327.033,187.008 332.500,185.400" stroke-width="3.424" stroke="rgb(255, 255, 255)" fill="none" stroke-linecap="round"/><path d="M 332.500,185.400 C 335.533,184.508 335.522,184.463 338.500,183.400" stroke-width="3.870" stroke="rgb(255, 255, 255)" fill="none" stroke-linecap="round"/><path d="M 338.500,183.400 C 342.522,181.963 342.513,181.933 346.500,180.400" stroke-width="3.781" stroke="rgb(255, 255, 255)" fill="none" stroke-linecap="round"/><path d="M 346.500,180.400 C 349.013,179.433 349.057,179.527 351.500,178.400" stroke-width="4.070" stroke="rgb(255, 255, 255)" fill="none" stroke-linecap="round"/><path d="M 351.500,178.400 C 355.557,176.527 359.954,174.400 359.500,174.400" stroke-width="4.331" stroke="rgb(255, 255, 255)" fill="none" stroke-linecap="round"/><path d="M 359.500,174.400 C 358.954,174.400 354.519,176.448 349.500,178.400" stroke-width="4.765" stroke="rgb(255, 255, 255)" fill="none" stroke-linecap="round"/><path d="M 349.500,178.400 C 345.519,179.948 345.421,179.719 341.500,181.400" stroke-width="3.939" stroke="rgb(255, 255, 255)" fill="none" stroke-linecap="round"/><path d="M 341.500,181.400 C 338.421,182.719 338.539,182.982 335.500,184.400" stroke-width="4.005" stroke="rgb(255, 255, 255)" fill="none" stroke-linecap="round"/><path d="M 335.500,184.400 C 331.039,186.482 330.770,185.998 326.500,188.400" stroke-width="3.624" stroke="rgb(255, 255, 255)" fill="none" stroke-linecap="round"/><path d="M 326.500,188.400 C 322.770,190.498 322.940,190.820 319.500,193.400" stroke-width="4.189" stroke="rgb(255, 255, 255)" fill="none" stroke-linecap="round"/><path d="M 319.500,193.400 C 316.940,195.320 313.844,196.089 314.500,197.400" stroke-width="4.556" stroke="rgb(255, 255, 255)" fill="none" stroke-linecap="round"/><path d="M 314.500,197.400 C 315.344,199.089 318.455,199.147 322.500,199.400" stroke-width="4.734" stroke="rgb(255, 255, 255)" fill="none" stroke-linecap="round"/><path d="M 322.500,199.400 C 326.455,199.647 326.535,199.100 330.500,198.400" stroke-width="4.051" stroke="rgb(255, 255, 255)" fill="none" stroke-linecap="round"/><path d="M 330.500,198.400 C 335.035,197.600 334.974,197.270 339.500,196.400" stroke-width="3.760" stroke="rgb(255, 255, 255)" fill="none" stroke-linecap="round"/><path d="M 339.500,196.400 C 347.974,194.770 347.994,194.867 356.500,193.400" stroke-width="2.954" stroke="rgb(255, 255, 255)" fill="none" stroke-linecap="round"/><path d="M 356.500,193.400 C 362.494,192.367 362.528,192.548 368.500,191.400" stroke-width="3.174" stroke="rgb(255, 255, 255)" fill="none" stroke-linecap="round"/><path d="M 368.500,191.400 C 375.528,190.048 375.474,189.766 382.500,188.400" stroke-width="3.089" stroke="rgb(255, 255, 255)" fill="none" stroke-linecap="round"/><path d="M 382.500,188.400 C 393.474,186.266 393.526,186.534 404.500,184.400" stroke-width="2.596" stroke="rgb(255, 255, 255)" fill="none" stroke-linecap="round"/><path d="M 404.500,184.400 C 411.526,183.034 411.473,182.760 418.500,181.400" stroke-width="2.846" stroke="rgb(255, 255, 255)" fill="none" stroke-linecap="round"/><path d="M 418.500,181.400 C 426.973,179.760 427.041,180.092 435.500,178.400" stroke-width="2.807" stroke="rgb(255, 255, 255)" fill="none" stroke-linecap="round"/><path d="M 435.500,178.400 C 439.541,177.592 439.692,177.864 443.500,176.400" stroke-width="3.385" stroke="rgb(255, 255, 255)" fill="none" stroke-linecap="round"/><path d="M 443.500,176.400 C 446.192,175.364 446.000,174.900 448.500,173.400" stroke-width="3.946" stroke="rgb(255, 255, 255)" fill="none" stroke-linecap="round"/><path d="M 448.500,173.400 C 451.000,171.900 451.347,172.284 453.500,170.400" stroke-width="4.068" stroke="rgb(255, 255, 255)" fill="none" stroke-linecap="round"/><path d="M 453.500,170.400 C 455.347,168.784 457.567,166.934 456.500,166.400" stroke-width="4.748" stroke="rgb(255, 255, 255)" fill="none" stroke-linecap="round"/><path d="M 456.500,166.400 C 454.567,165.434 451.981,166.760 447.500,167.400" stroke-width="5.145" stroke="rgb(255, 255, 255)" fill="none" stroke-linecap="round"/><path d="M 447.500,167.400 C 441.481,168.260 441.473,168.262 435.500,169.400" stroke-width="3.605" stroke="rgb(255, 255, 255)" fill="none" stroke-linecap="round"/><path d="M 435.500,169.400 C 430.973,170.262 431.000,170.400 426.500,171.400" stroke-width="3.634" stroke="rgb(255, 255, 255)" fill="none" stroke-linecap="round"/><path d="M 426.500,171.400 C 422.000,172.400 421.984,172.332 417.500,173.400" stroke-width="3.643" stroke="rgb(255, 255, 255)" fill="none" stroke-linecap="round"/><path d="M 417.500,173.400 C 411.484,174.832 411.335,174.455 405.500,176.400" stroke-width="3.300" stroke="rgb(255, 255, 255)" fill="none" stroke-linecap="round"/><path d="M 405.500,176.400 C 402.335,177.455 402.544,177.995 399.500,179.400" stroke-width="3.738" stroke="rgb(255, 255, 255)" fill="none" stroke-linecap="round"/><path d="M 399.500,179.400 C 396.044,180.995 395.839,180.602 392.500,182.400" stroke-width="3.886" stroke="rgb(255, 255, 255)" fill="none" stroke-linecap="round"/><path d="M 392.500,182.400 C 389.339,184.102 389.157,184.038 386.500,186.400" stroke-width="4.370" stroke="rgb(255, 255, 255)" fill="none" stroke-linecap="round"/><path d="M 386.500,186.400 C 384.657,188.038 382.445,189.345 383.500,190.400" stroke-width="4.718" stroke="rgb(255, 255, 255)" fill="none" stroke-linecap="round"/><path d="M 383.500,190.400 C 385.445,192.345 387.993,192.078 392.500,192.400" stroke-width="4.958" stroke="rgb(255, 255, 255)" fill="none" stroke-linecap="round"/><path d="M 392.500,192.400 C 394.993,192.578 394.975,191.652 397.500,191.400" stroke-width="4.580" stroke="rgb(255, 255, 255)" fill="none" stroke-linecap="round"/><path d="M 397.500,191.400 C 399.975,191.152 400.010,191.578 402.500,191.400" stroke-width="4.370" stroke="rgb(255, 255, 255)" fill="none" stroke-linecap="round"/><path d="M 402.500,191.400 C 407.010,191.078 407.015,191.012 411.500,190.400" stroke-width="4.358" stroke="rgb(255, 255, 255)" fill="none" stroke-linecap="round"/><path d="M 411.500,190.400 C 418.015,189.512 417.974,189.183 424.500,188.400" stroke-width="3.453" stroke="rgb(255, 255, 255)" fill="none" stroke-linecap="round"/><path d="M 424.500,188.400 C 430.474,187.683 430.537,188.178 436.500,187.400" stroke-width="3.339" stroke="rgb(255, 255, 255)" fill="none" stroke-linecap="round"/><path d="M 436.500,187.400 C 442.037,186.678 441.978,186.263 447.500,185.400" stroke-width="3.377" stroke="rgb(255, 255, 255)" fill="none" stroke-linecap="round"/><path d="M 447.500,185.400 C 457.978,183.763 458.000,183.900 468.500,182.400" stroke-width="3.251" stroke="rgb(255, 255, 255)" fill="none" stroke-linecap="round"/><path d="M 468.500,182.400 C 486.000,179.900 486.006,179.939 503.500,177.400" stroke-width="2.400" stroke="rgb(255, 255, 255)" fill="none" stroke-linecap="round"/><path d="M 503.500,177.400 C 517.006,175.439 517.015,175.498 530.500,173.400" stroke-width="2.166" stroke="rgb(255, 255, 255)" fill="none" stroke-linecap="round"/><path d="M 530.500,173.400 C 539.515,171.998 539.513,171.973 548.500,170.400" stroke-width="2.470" stroke="rgb(255, 255, 255)" fill="none" stroke-linecap="round"/><path d="M 548.500,170.400 C 559.513,168.473 559.572,168.718 570.500,166.400" stroke-width="2.441" stroke="rgb(255, 255, 255)" fill="none" stroke-linecap="round"/><path d="M 570.500,166.400 C 576.072,165.218 575.971,164.782 581.500,163.400" stroke-width="2.976" stroke="rgb(255, 255, 255)" fill="none" stroke-linecap="round"/><path d="M 581.500,163.400 C 585.971,162.282 586.013,162.456 590.500,161.400" stroke-width="3.416" stroke="rgb(255, 255, 255)" fill="none" stroke-linecap="round"/><path d="M 590.500,161.400 C 594.513,160.456 597.934,160.532 598.500,159.400" stroke-width="3.668" stroke="rgb(255, 255, 255)" fill="none" stroke-linecap="round"/><path d="M 598.500,159.400 C 598.934,158.532 595.590,157.593 592.500,157.400" stroke-width="4.505" stroke="rgb(255, 255, 255)" fill="none" stroke-linecap="round"/><path d="M 592.500,157.400 C 587.590,157.093 587.506,157.965 582.500,158.400" stroke-width="3.779" stroke="rgb(255, 255, 255)" fill="none" stroke-linecap="round"/><path d="M 582.500,158.400 C 576.006,158.965 576.009,159.057 569.500,159.400" stroke-width="3.276" stroke="rgb(255, 255, 255)" fill="none" stroke-linecap="round"/><path d="M 569.500,159.400 C 557.009,160.057 556.998,159.845 544.500,160.400" stroke-width="2.505" stroke="rgb(255, 255, 255)" fill="none" stroke-linecap="round"/><path d="M 544.500,160.400 C 534.498,160.845 534.506,161.156 524.500,161.400" stroke-width="2.559" stroke="rgb(255, 255, 255)" fill="none" stroke-linecap="round"/><path d="M 524.500,161.400 C 514.006,161.656 513.997,161.209 503.500,161.400" stroke-width="2.529" stroke="rgb(255, 255, 255)" fill="none" stroke-linecap="round"/><path d="M 503.500,161.400 C 486.497,161.709 486.496,161.804 469.500,162.400" stroke-width="1.970" stroke="rgb(255, 255, 255)" fill="none" stroke-linecap="round"/><path d="M 469.500,162.400 C 457.996,162.804 458.003,162.982 446.500,163.400" stroke-width="2.246" stroke="rgb(255, 255, 255)" fill="none" stroke-linecap="round"/><path d="M 446.500,163.400 C 430.503,163.982 430.496,163.796 414.500,164.400" stroke-width="2.031" stroke="rgb(255, 255, 255)" fill="none" stroke-linecap="round"/><path d="M 414.500,164.400 C 403.996,164.796 403.999,164.888 393.500,165.400" stroke-width="2.295" stroke="rgb(255, 255, 255)" fill="none" stroke-linecap="round"/><path d="M 393.500,165.400 C 383.499,165.888 383.504,165.983 373.500,166.400" stroke-width="2.489" stroke="rgb(255, 255, 255)" fill="none" stroke-linecap="round"/><path d="M 373.500,166.400 C 359.504,166.983 359.494,166.778 345.500,167.400" stroke-width="2.160" stroke="rgb(255, 255, 255)" fill="none" stroke-linecap="round"/><path d="M 345.500,167.400 C 336.994,167.778 336.998,167.869 328.500,168.400" stroke-width="2.578" stroke="rgb(255, 255, 255)" fill="none" stroke-linecap="round"/><path d="M 328.500,168.400 C 320.998,168.869 321.004,168.971 313.500,169.400" stroke-width="2.795" stroke="rgb(255, 255, 255)" fill="none" stroke-linecap="round"/><path d="M 313.500,169.400 C 303.504,169.971 303.493,169.794 293.500,170.400" stroke-width="2.701" stroke="rgb(255, 255, 255)" fill="none" stroke-linecap="round"/><path d="M 293.500,170.400 C 286.993,170.794 286.998,170.880 280.500,171.400" stroke-width="3.022" stroke="rgb(255, 255, 255)" fill="none" stroke-linecap="round"/><path d="M 280.500,171.400 C 274.498,171.880 274.505,171.971 268.500,172.400" stroke-width="3.151" stroke="rgb(255, 255, 255)" fill="none" stroke-linecap="round"/><path d="M 268.500,172.400 C 260.505,172.971 260.493,172.808 252.500,173.400" stroke-width="2.967" stroke="rgb(255, 255, 255)" fill="none" stroke-linecap="round"/><path d="M 252.500,173.400 C 246.993,173.808 247.008,174.007 241.500,174.400" stroke-width="3.211" stroke="rgb(255, 255, 255)" fill="none" stroke-linecap="round"/><path d="M 241.500,174.400 C 233.008,175.007 233.005,175.085 224.500,175.400" stroke-width="2.919" stroke="rgb(255, 255, 255)" fill="none" stroke-linecap="round"/><path d="M 224.500,175.400 C 219.505,175.585 219.485,175.138 214.500,175.400" stroke-width="3.279" stroke="rgb(255, 255, 255)" fill="none" stroke-linecap="round"/><path d="M 214.500,175.400 C 209.985,175.638 210.015,176.174 205.500,176.400" stroke-width="3.543" stroke="rgb(255, 255, 255)" fill="none" stroke-linecap="round"/><path d="M 205.500,176.400 C 200.015,176.674 199.973,176.078 194.500,176.400" stroke-width="3.453" stroke="rgb(255, 255, 255)" fill="none" stroke-linecap="round"/><path d="M 194.500,176.400 C 191.473,176.578 191.524,177.184 188.500,177.400" stroke-width="3.908" stroke="rgb(255, 255, 255)" fill="none" stroke-linecap="round"/><path d="M 188.500,177.400 C 184.524,177.684 184.500,177.400 180.500,177.400" stroke-width="3.796" stroke="rgb(255, 255, 255)" fill="none" stroke-linecap="round"/><path d="M 180.500,177.400 C 178.000,177.400 177.975,177.152 175.500,177.400" stroke-width="4.165" stroke="rgb(255, 255, 255)" fill="none" stroke-linecap="round"/><path d="M 175.500,177.400 C 172.975,177.652 173.022,178.040 170.500,178.400" stroke-width="4.277" stroke="rgb(255, 255, 255)" fill="none" stroke-linecap="round"/><path d="M 170.500,178.400 C 166.022,179.040 166.011,179.099 161.500,179.400" stroke-width="3.773" stroke="rgb(255, 255, 255)" fill="none" stroke-linecap="round"/><path d="M 161.500,179.400 C 158.511,179.599 158.489,179.201 155.500,179.400" stroke-width="4.034" stroke="rgb(255, 255, 255)" fill="none" stroke-linecap="round"/><path d="M 155.500,179.400 C 150.989,179.701 151.011,180.099 146.500,180.400" stroke-width="3.772" stroke="rgb(255, 255, 255)" fill="none" stroke-linecap="round"/><path d="M 146.500,180.400 C 143.511,180.599 143.484,180.170 140.500,180.400" stroke-width="3.990" stroke="rgb(255, 255, 255)" fill="none" stroke-linecap="round"/><path d="M 140.500,180.400 C 136.984,180.670 137.000,180.900 133.500,181.400" stroke-width="3.978" stroke="rgb(255, 255, 255)" fill="none" stroke-linecap="round"/><path d="M 133.500,181.400 C 130.000,181.900 129.994,181.862 126.500,182.400" stroke-width="4.430" stroke="rgb(255, 255, 255)" fill="none" stroke-linecap="round"/><path d="M 126.500,182.400 C 123.494,182.862 123.442,182.665 120.500,183.400" stroke-width="4.649" stroke="rgb(255, 255, 255)" fill="none" stroke-linecap="round"/><path d="M 120.500,183.400 C 117.442,184.165 117.500,184.400 114.500,185.400" stroke-width="4.885" stroke="rgb(255, 255, 255)" fill="none" stroke-linecap="round"/><path d="M 114.500,185.400 C 111.500,186.400 111.471,186.320 108.500,187.400" stroke-width="4.960" stroke="rgb(255, 255, 255)" fill="none" stroke-linecap="round"/><path d="M 108.500,187.400 C 105.971,188.320 105.901,188.200 103.500,189.400" stroke-width="5.130" stroke="rgb(255, 255, 255)" fill="none" stroke-linecap="round"/><path d="M 103.500,189.400 C 100.901,190.700 98.769,190.785 98.500,192.400" stroke-width="5.325" stroke="rgb(255, 255, 255)" fill="none" stroke-linecap="round"/><path d="M 98.500,192.400 C 98.269,193.785 100.167,194.900 102.500,195.400" stroke-width="5.347" stroke="rgb(255, 255, 255)" fill="none" stroke-linecap="round"/><path d="M 102.500,195.400 C 107.167,196.400 107.508,195.617 112.500,195.400" stroke-width="4.605" stroke="rgb(255, 255, 255)" fill="none" stroke-linecap="round"/><path d="M 112.500,195.400 C 119.008,195.117 119.003,194.941 125.500,194.400" stroke-width="3.436" stroke="rgb(255, 255, 255)" fill="none" stroke-linecap="round"/><path d="M 125.500,194.400 C 131.003,193.941 130.988,193.640 136.500,193.400" stroke-width="3.418" stroke="rgb(255, 255, 255)" fill="none" stroke-linecap="round"/><path d="M 136.500,193.400 C 142.488,193.140 142.506,193.600 148.500,193.400" stroke-width="3.273" stroke="rgb(255, 255, 255)" fill="none" stroke-linecap="round"/><path d="M 148.500,193.400 C 157.506,193.100 157.494,192.700 166.500,192.400" stroke-width="2.873" stroke="rgb(255, 255, 255)" fill="none" stroke-linecap="round"/><path d="M 166.500,192.400 C 172.494,192.200 172.536,192.877 178.500,192.400" stroke-width="3.157" stroke="rgb(255, 255, 255)" fill="none" stroke-linecap="round"/><path d="M 178.500,192.400 C 185.036,191.877 184.971,191.168 191.500,190.400" stroke-width="3.108" stroke="rgb(255, 255, 255)" fill="none" stroke-linecap="round"/><path d="M 191.500,190.400 C 201.971,189.168 202.015,189.534 212.500,188.400" stroke-width="2.664" stroke="rgb(255, 255, 255)" fill="none" stroke-linecap="round"/><path d="M 212.500,188.400 C 220.515,187.534 220.492,187.331 228.500,186.400" stroke-width="2.816" stroke="rgb(255, 255, 255)" fill="none" stroke-linecap="round"/><path d="M 228.500,186.400 C 241.992,184.831 242.034,185.156 255.500,183.400" stroke-width="2.261" stroke="rgb(255, 255, 255)" fill="none" stroke-linecap="round"/><path d="M 255.500,183.400 C 265.034,182.156 264.994,181.862 274.500,180.400" stroke-width="2.513" stroke="rgb(255, 255, 255)" fill="none" stroke-linecap="round"/><path d="M 274.500,180.400 C 284.494,178.862 284.510,178.967 294.500,177.400" stroke-width="2.552" stroke="rgb(255, 255, 255)" fill="none" stroke-linecap="round"/><path d="M 294.500,177.400 C 310.010,174.967 310.022,175.028 325.500,172.400" stroke-width="2.057" stroke="rgb(255, 255, 255)" fill="none" stroke-linecap="round"/><path d="M 325.500,172.400 C 336.522,170.528 336.467,170.196 347.500,168.400" stroke-width="2.304" stroke="rgb(255, 255, 255)" fill="none" stroke-linecap="round"/><path d="M 347.500,168.400 C 357.967,166.696 358.028,167.076 368.500,165.400" stroke-width="2.439" stroke="rgb(255, 255, 255)" fill="none" stroke-linecap="round"/><path d="M 368.500,165.400 C 383.028,163.076 382.995,162.869 397.500,160.400" stroke-width="2.099" stroke="rgb(255, 255, 255)" fill="none" stroke-linecap="round"/><path d="M 397.500,160.400 C 406.495,158.869 406.494,158.866 415.500,157.400" stroke-width="2.541" stroke="rgb(255, 255, 255)" fill="none" stroke-linecap="round"/><path d="M 415.500,157.400 C 427.994,155.366 428.033,155.582 440.500,153.400" stroke-width="2.276" stroke="rgb(255, 255, 255)" fill="none" stroke-linecap="round"/><path d="M 440.500,153.400 C 448.033,152.082 447.966,151.699 455.500,150.400" stroke-width="2.716" stroke="rgb(255, 255, 255)" fill="none" stroke-linecap="round"/><path d="M 455.500,150.400 C 462.466,149.199 462.514,149.492 469.500,148.400" stroke-width="2.955" stroke="rgb(255, 255, 255)" fill="none" stroke-linecap="round"/><path d="M 469.500,148.400 C 478.514,146.992 478.472,146.690 487.500,145.400" stroke-width="2.718" stroke="rgb(255, 255, 255)" fill="none" stroke-linecap="round"/><path d="M 487.500,145.400 C 492.472,144.690 492.516,145.023 497.500,144.400" stroke-width="3.243" stroke="rgb(255, 255, 255)" fill="none" stroke-linecap="round"/><path d="M 497.500,144.400 C 500.516,144.023 500.500,143.900 503.500,143.400" stroke-width="3.824" stroke="rgb(255, 255, 255)" fill="none" stroke-linecap="round"/><path d="M 503.500,143.400 C 506.500,142.900 506.500,142.900 509.500,142.400" stroke-width="3.997" stroke="rgb(255, 255, 255)" fill="none" stroke-linecap="round"/><path d="M 509.500,142.400 C 512.500,141.900 515.728,142.083 515.500,141.400" stroke-width="4.659" stroke="rgb(255, 255, 255)" fill="none" stroke-linecap="round"/></svg>