<?xml version="1.0" encoding="UTF-8"?>
<!DOCTYPE svg PUBLIC "-//W3C//DTD SVG 1.1//EN" "http://www.w3.org/Graphics/SVG/1.1/DTD/svg11.dtd">
<svg xmlns="http://www.w3.org/2000/svg" version="1.1" width="800px" height="800px" style="shape-rendering:geometricPrecision; text-rendering:geometricPrecision; image-rendering:optimizeQuality; fill-rule:evenodd; clip-rule:evenodd" xmlns:xlink="http://www.w3.org/1999/xlink">
<g><path style="opacity:0.995" fill="#387eb8" d="M 375.5,92.5 C 411.647,90.5577 447.314,93.7243 482.5,102C 503.35,107.504 521.184,118.004 536,133.5C 540.67,139.842 544.004,146.842 546,154.5C 547.389,211.161 547.722,267.827 547,324.5C 544.366,356.639 527.533,376.806 496.5,385C 434.864,386.311 373.198,386.978 311.5,387C 262,393.833 233.833,422 227,471.5C 226.5,496.498 226.333,521.498 226.5,546.5C 156.741,565.089 114.241,539.755 99,470.5C 90.3333,423.167 90.3333,375.833 99,328.5C 103.341,302.747 114.841,280.913 133.5,263C 139.842,258.33 146.842,254.996 154.5,253C 236.166,252.5 317.833,252.333 399.5,252.5C 399.5,243.833 399.5,235.167 399.5,226.5C 350.5,226.5 301.5,226.5 252.5,226.5C 252.333,202.498 252.5,178.498 253,154.5C 257.927,137.567 268.093,124.734 283.5,116C 299.126,107.235 315.793,101.235 333.5,98C 347.569,95.5323 361.569,93.699 375.5,92.5 Z"/></g>
<g><path style="opacity:1" fill="#fcfdfe" d="M 314.5,132.5 C 334.68,132.516 345.18,142.516 346,162.5C 342.279,179.442 331.779,187.275 314.5,186C 298.999,181.16 291.833,170.66 293,154.5C 296.35,143.318 303.517,135.984 314.5,132.5 Z"/></g>
<g><path style="opacity:0.998" fill="#ffc331" d="M 572.5,252.5 C 642.298,233.928 684.798,259.262 700,328.5C 708.667,375.833 708.667,423.167 700,470.5C 695.659,496.253 684.159,518.087 665.5,536C 659.158,540.67 652.158,544.004 644.5,546C 562.834,546.5 481.167,546.667 399.5,546.5C 399.5,555.167 399.5,563.833 399.5,572.5C 448.5,572.5 497.5,572.5 546.5,572.5C 546.667,596.502 546.5,620.502 546,644.5C 541.073,661.433 530.907,674.266 515.5,683C 486.687,697.87 456.02,705.537 423.5,706C 391.568,708.009 359.901,706.009 328.5,700C 308.326,696.059 289.993,688.059 273.5,676C 263.265,667.692 256.431,657.192 253,644.5C 252.333,585.833 252.333,527.167 253,468.5C 258.167,436.667 276.667,418.167 308.5,413C 368.167,412.667 427.833,412.333 487.5,412C 537,405.167 565.167,377 572,327.5C 572.5,302.502 572.667,277.502 572.5,252.5 Z"/></g>
<g><path style="opacity:1" fill="#fffefc" d="M 474.5,612.5 C 492.685,612.026 503.352,620.692 506.5,638.5C 504.833,655.5 495.5,664.833 478.5,666.5C 462.595,663.927 453.929,654.594 452.5,638.5C 454.467,625.206 461.8,616.54 474.5,612.5 Z"/></g>
</svg>
