<?xml version="1.0" encoding="UTF-8"?>
<!DOCTYPE svg PUBLIC "-//W3C//DTD SVG 1.1//EN" "http://www.w3.org/Graphics/SVG/1.1/DTD/svg11.dtd">
<svg xmlns="http://www.w3.org/2000/svg" version="1.1" width="506px" height="494px" style="shape-rendering:geometricPrecision; text-rendering:geometricPrecision; image-rendering:optimizeQuality; fill-rule:evenodd; clip-rule:evenodd" xmlns:xlink="http://www.w3.org/1999/xlink">
<g><path style="opacity:1" fill="#FFFFFF" d="M 432.5,-0.5 C 434.833,-0.5 437.167,-0.5 439.5,-0.5C 456.852,64.2416 474.519,128.908 492.5,193.5C 492.423,195.299 491.923,196.966 491,198.5C 481.625,214.084 472.125,229.584 462.5,245C 471.541,260.25 480.708,275.416 490,290.5C 491.404,292.639 492.237,294.972 492.5,297.5C 474.421,362.069 456.754,426.736 439.5,491.5C 372.096,474.316 304.763,456.816 237.5,439C 227.5,422 217.5,405 207.5,388C 194.338,387.857 181.172,388.024 168,388.5C 160.4,388.634 152.9,388.134 145.5,387C 96.9647,339.63 48.298,292.464 -0.5,245.5C -0.5,245.167 -0.5,244.833 -0.5,244.5C 36.5296,208.136 73.863,172.136 111.5,136.5C 114.938,134.241 118.271,131.741 121.5,129C 124.336,125.333 127.336,121.833 130.5,118.5C 135.63,112.869 140.964,107.369 146.5,102C 167.175,101.833 187.841,101.333 208.5,100.5C 217.467,84.3712 226.633,68.3712 236,52.5C 236.903,51.2986 238.069,50.4652 239.5,50C 304.079,33.6066 368.413,16.7732 432.5,-0.5 Z M 277.5,220.5 C 218.664,220.832 159.998,220.499 101.5,219.5C 138.992,183.175 176.325,146.675 213.5,110C 263.518,97.6057 313.518,85.1057 363.5,72.5C 364.167,72.6667 364.833,72.8333 365.5,73C 336.338,122.315 307.005,171.481 277.5,220.5 Z M 408.5,97.5 C 409.497,97.4701 410.164,97.9701 410.5,99C 424.655,147.622 438.655,196.288 452.5,245C 438.397,294.245 424.064,343.412 409.5,392.5C 379.782,343.565 350.449,294.399 321.5,245C 350.642,195.877 379.642,146.71 408.5,97.5 Z M 357.5,415.5 C 352.712,413.8 347.712,412.467 342.5,411.5C 328.897,407.913 315.231,404.579 301.5,401.5C 299.401,400.388 297.067,399.721 294.5,399.5C 278.294,395.1 261.96,391.1 245.5,387.5C 243.401,386.388 241.067,385.721 238.5,385.5C 238.167,385.5 237.833,385.5 237.5,385.5C 235.698,384.542 233.698,383.875 231.5,383.5C 224.752,381.98 218.086,380.146 211.5,378C 175.293,341.626 138.959,305.459 102.5,269.5C 160.874,268.689 219.041,268.356 277,268.5C 279.899,271.952 282.566,275.618 285,279.5C 311.602,325.095 338.602,370.428 366,415.5C 366.688,416.332 366.521,416.998 365.5,417.5C 362.979,416.215 360.313,415.548 357.5,415.5 Z"/></g>
<g><path style="opacity:1" fill="#FFFFFF" d="M 130.5,118.5 C 127.336,121.833 124.336,125.333 121.5,129C 118.271,131.741 114.938,134.241 111.5,136.5C 117.223,129.775 123.556,123.775 130.5,118.5 Z"/></g>
<g><path style="opacity:0.804" fill="#FFFFFF" d="M 101.5,219.5 C 159.998,220.499 218.664,220.832 277.5,220.5C 218.665,221.831 159.665,221.831 100.5,220.5C 100.624,219.893 100.957,219.56 101.5,219.5 Z"/></g>
<g><path style="opacity:0.824" fill="#FFFFFF" d="M 231.5,383.5 C 233.698,383.875 235.698,384.542 237.5,385.5C 234.99,385.946 232.99,385.28 231.5,383.5 Z"/></g>
<g><path style="opacity:0.831" fill="#FFFFFF" d="M 238.5,385.5 C 241.067,385.721 243.401,386.388 245.5,387.5C 242.772,387.829 240.438,387.163 238.5,385.5 Z"/></g>
<g><path style="opacity:0.808" fill="#FFFFFF" d="M 294.5,399.5 C 297.067,399.721 299.401,400.388 301.5,401.5C 298.772,401.829 296.438,401.163 294.5,399.5 Z"/></g>
<g><path style="opacity:0.918" fill="#FFFFFF" d="M 342.5,411.5 C 347.712,412.467 352.712,413.8 357.5,415.5C 352.73,415.308 348.063,414.475 343.5,413C 342.944,412.617 342.611,412.117 342.5,411.5 Z"/></g>
</svg>
